<svg xmlns="http://www.w3.org/2000/svg" width="131" height="46" fill="none"><path fill="url(#a)" d="M1.486 20.982c.205 1.236.115 3.974 1.454 4.527 1.807.747 2.127-1.325 2.342-2.653.423-2.61-.65-6.669.533-8.934 12.854 15.792 30.29 26.306 50.364 29.87 19.967 3.543 43.286.997 59.27-12.643 7.823-6.675 13.783-15.446 14.836-25.944.09-.901.743-5.334-1.04-4.86-.929.246-1.712 5.945-2.01 6.94-1.549 5.176-3.91 9.787-7.27 14-11.451 14.352-31.041 20.118-48.704 19.756-11.7-.24-23.605-3.114-34.252-8.093-5.496-2.57-10.862-5.723-15.58-9.567-3.98-3.242-10.653-8.422-12.523-13.389 4.612-.07 9.454 4.374 14.068 4.987 2.445.325 4.92-1.26 2.865-3.632-1.666-1.924-6.12-2.576-8.452-3.37-2.603-.884-5.22-1.68-7.894-2.317-1.962-.467-5.976-2.288-7.796-1.179-3.218 1.961-.635 13.316-.211 16.5-.177-1.328.214 1.293 0 0z"/><defs><linearGradient id="a" x1="-1.052" x2="122.586" y1="4.844" y2="16.712" gradientUnits="userSpaceOnUse"><stop stop-color="#1A1A1A"/><stop offset="1" stop-color="#1A1A1A" stop-opacity="0"/></linearGradient></defs></svg>