<?xml version="1.0" encoding="UTF-8"?>
<svg id="Layer_1" data-name="Layer 1" xmlns="http://www.w3.org/2000/svg" viewBox="0 0 300 120">
  <defs>
    <style>
      .cls-1 {
      isolation: isolate;
      }

      .cls-2 {
      fill: #fff;
      }

      .cls-2, .cls-3 {
      stroke-width: 0px;
      }

    </style>
  </defs>
  <rect class="cls-3" width="300" height="120" fill="transparent"/>
  <rect class="cls-2" x="18.75" y="30" width="60" height="60" rx="1" ry="1"/>
  <g>
    <circle class="cls-3" cx="28.75" cy="40" r="1.5"/>
    <circle class="cls-3" cx="38.75" cy="40" r="1.5"/>
    <circle class="cls-3" cx="48.75" cy="40" r="1.5"/>
    <circle class="cls-3" cx="58.75" cy="40" r="1.5"/>
    <circle class="cls-3" cx="68.75" cy="40" r="1.5"/>
    <circle class="cls-3" cx="28.75" cy="50" r="1.5"/>
    <circle class="cls-3" cx="38.75" cy="50" r="1.5"/>
    <circle class="cls-3" cx="48.75" cy="50" r="1.5"/>
    <circle class="cls-3" cx="58.75" cy="50" r="1.5"/>
    <circle class="cls-3" cx="68.75" cy="50" r="1.5"/>
    <circle class="cls-3" cx="28.75" cy="60" r="1.5"/>
    <circle class="cls-3" cx="38.75" cy="60" r="1.5"/>
    <circle class="cls-3" cx="48.75" cy="60" r="3"/>
    <circle class="cls-3" cx="58.75" cy="60" r="1.5"/>
    <circle class="cls-3" cx="68.75" cy="60" r="1.5"/>
    <circle class="cls-3" cx="28.75" cy="70" r="1.5"/>
    <circle class="cls-3" cx="38.75" cy="70" r="1.5"/>
    <circle class="cls-3" cx="48.75" cy="70" r="1.5"/>
    <circle class="cls-3" cx="58.75" cy="70" r="1.5"/>
    <circle class="cls-3" cx="68.75" cy="70" r="1.5"/>
    <circle class="cls-3" cx="28.75" cy="80" r="1.5"/>
    <circle class="cls-3" cx="38.75" cy="80" r="1.5"/>
    <circle class="cls-3" cx="48.75" cy="80" r="1.5"/>
    <circle class="cls-3" cx="58.75" cy="80" r="1.5"/>
    <circle class="cls-3" cx="68.75" cy="80" r="1.5"/>
  </g>
  <g>
    <g class="cls-1">
      <path class="cls-2" d="M88.54,51.5l4.22-.41c.25,1.42.77,2.46,1.55,3.12s1.82,1,3.14,1c1.4,0,2.45-.29,3.16-.89.71-.59,1.06-1.28,1.06-2.07,0-.51-.15-.94-.45-1.3-.3-.36-.82-.67-1.56-.93-.51-.18-1.67-.49-3.47-.94-2.32-.58-3.96-1.28-4.89-2.12-1.32-1.18-1.98-2.62-1.98-4.32,0-1.09.31-2.12.93-3.07.62-.95,1.51-1.68,2.68-2.18s2.58-.75,4.23-.75c2.7,0,4.72.59,6.09,1.77s2.08,2.76,2.15,4.73l-4.34.19c-.19-1.1-.58-1.9-1.19-2.38-.61-.48-1.53-.72-2.75-.72s-2.25.26-2.96.78c-.46.33-.69.78-.69,1.33,0,.51.21.94.64,1.3.55.46,1.88.94,3.98,1.44s3.67,1.01,4.68,1.55,1.8,1.26,2.37,2.18c.57.92.86,2.06.86,3.42,0,1.23-.34,2.38-1.03,3.46s-1.65,1.87-2.9,2.4c-1.25.52-2.81.78-4.67.78-2.71,0-4.8-.63-6.25-1.88-1.46-1.25-2.32-3.08-2.61-5.49Z"/>
      <path class="cls-2" d="M114.48,58.49v-17.84h-6.37v-3.63h17.07v3.63h-6.36v17.84h-4.34Z"/>
      <path class="cls-2" d="M145.11,58.49h-4.72l-1.88-4.88h-8.58l-1.77,4.88h-4.6l8.36-21.47h4.58l8.6,21.47ZM137.12,49.99l-2.96-7.97-2.9,7.97h5.86Z"/>
      <path class="cls-2" d="M147.44,58.49v-21.47h14.72v3.63h-10.39v5.08h8.96v3.63h-8.96v9.13h-4.34Z"/>
      <path class="cls-2" d="M165.76,58.49v-21.47h14.72v3.63h-10.39v5.08h8.96v3.63h-8.96v9.13h-4.34Z"/>
      <path class="cls-2" d="M184.17,58.49v-21.3h4.34v17.68h10.78v3.62h-15.12Z"/>
      <path class="cls-2" d="M202.35,37.01h4.34v11.63c0,1.85.05,3.04.16,3.59.19.88.63,1.58,1.33,2.12.7.53,1.65.8,2.86.8s2.16-.25,2.78-.75,1-1.12,1.13-1.85.19-1.95.19-3.65v-11.88h4.34v11.28c0,2.58-.12,4.4-.35,5.46s-.67,1.96-1.3,2.7-1.47,1.32-2.53,1.75c-1.05.43-2.43.65-4.13.65-2.05,0-3.61-.24-4.67-.71-1.06-.47-1.9-1.09-2.51-1.85s-1.02-1.55-1.22-2.38c-.28-1.23-.42-3.05-.42-5.45v-11.46Z"/>
      <path class="cls-2" d="M224.05,58.49v-21.47h15.92v3.63h-11.59v4.76h10.78v3.62h-10.78v5.84h12v3.62h-16.33Z"/>
      <path class="cls-2" d="M244.1,58.49v-21.47h4.22l8.79,14.34v-14.34h4.03v21.47h-4.35l-8.66-14v14h-4.03Z"/>
      <path class="cls-2" d="M270.56,58.49v-17.84h-6.37v-3.63h17.07v3.63h-6.36v17.84h-4.34Z"/>
    </g>
    <g class="cls-1">
      <path class="cls-2" d="M97.2,80.19l1.14.29c-.24.93-.67,1.65-1.29,2.14s-1.38.74-2.27.74-1.68-.19-2.26-.57-1.02-.92-1.32-1.64-.45-1.48-.45-2.3c0-.89.17-1.67.51-2.34s.83-1.17,1.46-1.52,1.33-.52,2.08-.52c.86,0,1.58.22,2.17.66s.99,1.05,1.22,1.85l-1.12.26c-.2-.62-.49-1.08-.87-1.37s-.86-.43-1.43-.43c-.66,0-1.21.16-1.66.47s-.75.74-.93,1.27-.27,1.08-.27,1.65c0,.73.11,1.37.32,1.91s.54.95.99,1.22.94.4,1.46.4c.64,0,1.18-.18,1.62-.55s.74-.91.9-1.63Z"/>
      <path class="cls-2" d="M99.76,83.21v-8.59h6.21v1.01h-5.07v2.63h4.75v1.01h-4.75v2.92h5.27v1.01h-6.41Z"/>
      <path class="cls-2" d="M107.73,83.21v-8.59h1.17l4.51,6.74v-6.74h1.09v8.59h-1.17l-4.51-6.75v6.75h-1.09Z"/>
      <path class="cls-2" d="M118.59,83.21v-7.58h-2.83v-1.01h6.81v1.01h-2.84v7.58h-1.14Z"/>
      <path class="cls-2" d="M123.76,83.21v-8.59h6.21v1.01h-5.07v2.63h4.75v1.01h-4.75v2.92h5.27v1.01h-6.41Z"/>
      <path class="cls-2" d="M131.76,83.21v-8.59h3.81c.77,0,1.35.08,1.75.23s.72.43.96.82.36.82.36,1.29c0,.61-.2,1.12-.59,1.54s-1,.68-1.83.8c.3.14.53.29.69.43.33.3.65.69.94,1.14l1.49,2.34h-1.43l-1.14-1.79c-.33-.52-.61-.91-.82-1.18s-.41-.46-.58-.57-.34-.19-.52-.23c-.13-.03-.34-.04-.63-.04h-1.32v3.81h-1.14ZM132.9,78.41h2.44c.52,0,.93-.05,1.22-.16s.52-.28.67-.52.23-.49.23-.77c0-.41-.15-.74-.44-1s-.76-.39-1.4-.39h-2.72v2.84Z"/>
      <path class="cls-2" d="M140.43,83.21v-8.59h6.21v1.01h-5.07v2.63h4.75v1.01h-4.75v2.92h5.27v1.01h-6.41Z"/>
      <path class="cls-2" d="M148.41,83.21v-8.59h2.96c.67,0,1.18.04,1.53.12.49.11.91.32,1.26.62.45.38.79.87,1.02,1.47s.34,1.28.34,2.04c0,.65-.08,1.23-.23,1.73s-.35.92-.59,1.25-.5.59-.78.78-.62.33-1.03.43-.86.15-1.38.15h-3.1ZM149.55,82.19h1.83c.57,0,1.01-.05,1.33-.16s.58-.25.77-.45c.27-.27.48-.63.63-1.09s.23-1.01.23-1.66c0-.9-.15-1.59-.44-2.07s-.65-.81-1.08-.97c-.3-.12-.79-.18-1.47-.18h-1.8v6.56Z"/>
      <path class="cls-2" d="M160.6,83.21v-8.59h1.14v8.59h-1.14Z"/>
      <path class="cls-2" d="M163.73,83.21v-8.59h1.17l4.51,6.74v-6.74h1.09v8.59h-1.17l-4.51-6.75v6.75h-1.09Z"/>
      <path class="cls-2" d="M174.6,83.21v-7.58h-2.83v-1.01h6.81v1.01h-2.84v7.58h-1.14Z"/>
      <path class="cls-2" d="M179.76,83.21v-8.59h6.21v1.01h-5.07v2.63h4.75v1.01h-4.75v2.92h5.27v1.01h-6.41Z"/>
      <path class="cls-2" d="M187.7,83.21v-8.59h1.14v7.58h4.23v1.01h-5.37Z"/>
      <path class="cls-2" d="M194.37,83.21v-8.59h1.14v7.58h4.23v1.01h-5.37Z"/>
      <path class="cls-2" d="M201.29,83.21v-8.59h1.14v8.59h-1.14Z"/>
      <path class="cls-2" d="M208.45,79.84v-1.01h3.64s0,3.18,0,3.18c-.56.45-1.13.78-1.73,1s-1.2.34-1.83.34c-.84,0-1.61-.18-2.3-.54s-1.21-.88-1.56-1.57-.53-1.45-.53-2.29.17-1.62.52-2.34.85-1.26,1.51-1.61,1.41-.53,2.27-.53c.62,0,1.18.1,1.68.3s.9.48,1.18.84.5.83.65,1.41l-1.03.28c-.13-.44-.29-.78-.48-1.03s-.46-.45-.82-.6-.75-.23-1.18-.23c-.52,0-.97.08-1.35.24s-.68.37-.92.62-.41.54-.54.85c-.22.53-.33,1.11-.33,1.73,0,.77.13,1.41.4,1.92s.65.9,1.15,1.15,1.04.38,1.61.38c.49,0,.97-.09,1.44-.28s.82-.39,1.07-.61v-1.6h-2.53Z"/>
      <path class="cls-2" d="M213.78,83.21v-8.59h6.21v1.01h-5.07v2.63h4.75v1.01h-4.75v2.92h5.27v1.01h-6.41Z"/>
      <path class="cls-2" d="M221.75,83.21v-8.59h1.17l4.51,6.74v-6.74h1.09v8.59h-1.17l-4.51-6.75v6.75h-1.09Z"/>
      <path class="cls-2" d="M236.56,80.19l1.14.29c-.24.93-.67,1.65-1.29,2.14s-1.38.74-2.27.74-1.68-.19-2.26-.57-1.02-.92-1.32-1.64-.45-1.48-.45-2.3c0-.89.17-1.67.51-2.34s.83-1.17,1.46-1.52,1.33-.52,2.08-.52c.86,0,1.58.22,2.17.66s.99,1.05,1.22,1.85l-1.12.26c-.2-.62-.49-1.08-.87-1.37s-.86-.43-1.43-.43c-.66,0-1.21.16-1.66.47s-.75.74-.93,1.27-.27,1.08-.27,1.65c0,.73.11,1.37.32,1.91s.54.95.99,1.22.94.4,1.46.4c.64,0,1.18-.18,1.62-.55s.74-.91.9-1.63Z"/>
      <path class="cls-2" d="M239.12,83.21v-8.59h6.21v1.01h-5.07v2.63h4.75v1.01h-4.75v2.92h5.27v1.01h-6.41Z"/>
    </g>
  </g>
</svg>