<?xml version="1.0" encoding="UTF-8"?>
<svg id="Layer_1" data-name="Layer 1" xmlns="http://www.w3.org/2000/svg" viewBox="0 0 512 512">
  <defs>
    <style>
      .cls-1 {
        fill: #fff;
      }

      .cls-1, .cls-2 {
        stroke-width: 0px;
      }

      .cls-2 {
        fill: #0a0a0a;
      }
    </style>
  </defs>
  <rect class="cls-1" x="0" width="512" height="512" rx="80" ry="80"/>
  <g>
    <circle class="cls-2" cx="85.33" cy="85.33" r="12.8"/>
    <circle class="cls-2" cx="170.67" cy="85.33" r="12.8"/>
    <circle class="cls-2" cx="256" cy="85.33" r="12.8"/>
    <circle class="cls-2" cx="341.33" cy="85.33" r="12.8"/>
    <circle class="cls-2" cx="426.67" cy="85.33" r="12.8"/>
    <circle class="cls-2" cx="85.33" cy="170.67" r="12.8"/>
    <circle class="cls-2" cx="170.67" cy="170.67" r="12.8"/>
    <circle class="cls-2" cx="256" cy="170.67" r="12.8"/>
    <circle class="cls-2" cx="341.33" cy="170.67" r="12.8"/>
    <circle class="cls-2" cx="426.67" cy="170.67" r="12.8"/>
    <circle class="cls-2" cx="85.33" cy="256" r="12.8"/>
    <circle class="cls-2" cx="170.67" cy="256" r="12.8"/>
    <circle class="cls-2" cx="256" cy="256" r="25.6"/>
    <circle class="cls-2" cx="341.33" cy="256" r="12.8"/>
    <circle class="cls-2" cx="426.67" cy="256" r="12.8"/>
    <circle class="cls-2" cx="85.33" cy="341.33" r="12.8"/>
    <circle class="cls-2" cx="170.67" cy="341.33" r="12.8"/>
    <circle class="cls-2" cx="256" cy="341.33" r="12.8"/>
    <circle class="cls-2" cx="341.33" cy="341.33" r="12.8"/>
    <circle class="cls-2" cx="426.67" cy="341.33" r="12.8"/>
    <circle class="cls-2" cx="85.33" cy="426.67" r="12.8"/>
    <circle class="cls-2" cx="170.67" cy="426.67" r="12.8"/>
    <circle class="cls-2" cx="256" cy="426.67" r="12.8"/>
    <circle class="cls-2" cx="341.33" cy="426.67" r="12.8"/>
    <circle class="cls-2" cx="426.67" cy="426.67" r="12.8"/>
  </g>
</svg>