<svg xmlns="http://www.w3.org/2000/svg" width="131" height="46" fill="none"><path fill="url(#a)" d="M129.84 28.332c-.136-1.245.106-3.974-1.199-4.6-1.764-.847-2.198 1.204-2.487 2.518-.567 2.583.277 6.694-1.03 8.89C113.17 18.658 96.347 7.189 76.502 2.513 56.764-2.138 33.34-.895 16.62 11.833 8.437 18.063 1.998 26.488.362 36.911c-.14.895-1.039 5.284.768 4.911.941-.194 2.04-5.84 2.393-6.818 1.835-5.081 4.449-9.554 8.039-13.573C23.795 7.738 43.675 3.072 61.29 4.418c11.67.892 23.395 4.424 33.748 9.989 5.344 2.872 10.527 6.318 15.024 10.42 3.793 3.458 10.167 9.001 11.758 14.065-4.61-.188-9.196-4.894-13.77-5.763-2.423-.46-4.982.983-3.062 3.467 1.557 2.014 5.966 2.913 8.251 3.835 2.55 1.028 5.119 1.968 7.753 2.753 1.933.576 5.839 2.618 7.718 1.612 3.322-1.78 1.376-13.26 1.13-16.463.103 1.336-.142-1.302 0 0z"/><defs><linearGradient id="a" x1="131.475" x2="8.69" y1="44.587" y2="25.851" gradientUnits="userSpaceOnUse"><stop stop-color="#fff"/><stop offset="1" stop-color="#fff" stop-opacity="0"/></linearGradient></defs></svg>